<svg width="46" height="50" viewBox="0 0 46 50" fill="none" xmlns="http://www.w3.org/2000/svg">
<path d="M14.8007 37.7991C13.7033 37.7991 12.7745 36.872 12.7745 35.7763V16.8126H2.98126C1.88375 16.8126 0.955078 15.8855 0.955078 14.7897V2.56869C0.955078 1.47302 1.88375 0.545898 2.98126 0.545898H33.4586C34.5561 0.545898 35.4848 1.47302 35.4848 2.56869V12.5141C35.4848 13.6098 34.5561 14.5369 33.4586 14.5369C32.3611 14.5369 31.4325 13.6098 31.4325 12.5141V4.50722H4.92304V12.8513H14.7162C15.8138 12.8513 16.7425 13.7784 16.7425 14.874V35.8606C16.7425 36.872 15.8983 37.7991 14.8007 37.7991Z" fill="#D64D78"/>
<path d="M39.3604 36.4491C42.9062 35.1848 44.7636 32.572 44.7636 28.7793C44.7636 25.0708 43.1595 22.3738 40.289 21.1937C42.3153 20.2666 43.3284 18.8338 43.3284 18.7496L43.5816 18.4124L40.8801 15.9683L40.6267 16.3897C38.6851 19.0867 34.717 19.3395 33.5351 19.3395C23.0664 19.3395 22.3066 26.5879 22.3066 28.7793C22.3066 33.7519 25.1771 36.9547 30.5802 37.9661C31.5933 38.1347 32.6908 38.3033 33.6195 38.4718C34.8859 38.6404 35.9834 38.8089 36.5744 38.9775C39.7825 39.8203 41.2177 41.2532 40.7112 43.1074C40.0358 46.1417 34.126 46.1417 34.0417 46.1417C31.0023 46.2258 28.8073 45.636 27.4566 44.2874C26.1058 42.9389 26.1901 41.2532 26.1901 41.2532V40.8318H22.6443V41.2532C22.5599 43.4445 23.2353 45.2987 24.6705 46.7316C26.6122 48.6701 29.736 49.7658 33.4507 49.7658C35.8146 49.7658 40.1202 49.4287 42.5685 46.9002C43.7505 45.636 44.3414 44.1188 44.3414 42.2646C44.4258 39.1461 41.9775 37.2919 39.3604 36.4491ZM33.5351 22.9638C38.5162 22.9638 40.9645 24.9865 40.9645 28.8636C40.9645 33.8363 36.912 34.932 33.5351 34.932C30.1581 34.932 26.1058 33.9206 26.1058 28.8636C26.1058 24.9022 28.554 22.9638 33.5351 22.9638Z" fill="#D64D78"/>
<path d="M24.5952 42.6023C25.5744 42.6023 26.3681 41.8099 26.3681 40.8324C26.3681 39.855 25.5744 39.0625 24.5952 39.0625C23.616 39.0625 22.8223 39.855 22.8223 40.8324C22.8223 41.8099 23.616 42.6023 24.5952 42.6023Z" fill="#D64D78"/>
<path d="M45.957 15.8013V19.7627C45.957 20.6898 45.1972 21.4483 44.2685 21.4483C43.3399 21.4483 42.5801 20.6898 42.5801 19.7627V15.8013C42.5801 14.8742 43.3399 14.1157 44.2685 14.1157C45.1972 14.1157 45.957 14.8742 45.957 15.8013Z" fill="#D64D78"/>
<path d="M40.2999 14.1157H44.2678C45.1965 14.1157 45.9564 14.8742 45.9564 15.8013C45.9564 16.7285 45.1965 17.4871 44.2678 17.4871H40.2999C39.3712 17.4871 38.6113 16.7285 38.6113 15.8013C38.6113 14.8742 39.3712 14.1157 40.2999 14.1157Z" fill="#D64D78"/>
<path d="M28.9796 7.12012H37.7597C38.6884 7.12012 39.4482 7.87867 39.4482 8.80579C39.4482 9.7329 38.6884 10.4915 37.7597 10.4915H28.9796C28.0509 10.4915 27.291 9.7329 27.291 8.80579C27.291 7.87867 28.0509 7.12012 28.9796 7.12012Z" fill="#D64D78"/>
</svg>
